<mxfile host="app.diagrams.net" modified="2022-02-03T22:13:13.836Z" agent="5.0 (Windows NT 10.0; Win64; x64) AppleWebKit/537.36 (KHTML, like Gecko) Chrome/97.0.4692.99 Safari/537.36" etag="XTE5uSBXWhwthYUt40go" version="16.5.3" type="github">
  <diagram id="6a731a19-8d31-9384-78a2-239565b7b9f0" name="Page-1">
    <mxGraphModel dx="1447" dy="803" grid="1" gridSize="10" guides="1" tooltips="1" connect="1" arrows="1" fold="1" page="1" pageScale="1" pageWidth="1169" pageHeight="827" background="none" math="0" shadow="0">
      <root>
        <mxCell id="0" />
        <mxCell id="1" parent="0" />
        <mxCell id="1jc9C1iYzzoCRpQc4cDz-110" style="edgeStyle=orthogonalEdgeStyle;rounded=0;orthogonalLoop=1;jettySize=auto;html=1;entryX=0.5;entryY=0;entryDx=0;entryDy=0;" edge="1" parent="1" source="2" target="1jc9C1iYzzoCRpQc4cDz-109">
          <mxGeometry relative="1" as="geometry" />
        </mxCell>
        <mxCell id="2" value="start" style="shape=mxgraph.flowchart.terminator;strokeWidth=2;gradientColor=none;gradientDirection=north;fontStyle=0;html=1;" parent="1" vertex="1">
          <mxGeometry x="452.15999999999997" y="60" width="120" height="30" as="geometry" />
        </mxCell>
        <mxCell id="45" value="" style="edgeStyle=elbowEdgeStyle;elbow=horizontal;exitX=1;exitY=0.5;exitPerimeter=0;entryX=0.905;entryY=0.5;entryPerimeter=0;fontStyle=1;strokeColor=#003366;strokeWidth=1;html=1;" parent="1" target="34" edge="1">
          <mxGeometry width="100" height="100" as="geometry">
            <mxPoint x="380.5000000000002" y="1119.2500000000002" as="sourcePoint" />
            <mxPoint x="100" as="targetPoint" />
            <Array as="points">
              <mxPoint x="950" y="1320" />
            </Array>
          </mxGeometry>
        </mxCell>
        <mxCell id="1jc9C1iYzzoCRpQc4cDz-72" value="" style="fontStyle=1;strokeColor=#003366;strokeWidth=1;html=1;endArrow=none;entryX=0.5;entryY=0;entryDx=0;entryDy=0;" edge="1" parent="1" source="2">
          <mxGeometry relative="1" as="geometry">
            <mxPoint x="512.1599999999999" y="90" as="sourcePoint" />
            <mxPoint x="512" y="139.9999999999999" as="targetPoint" />
          </mxGeometry>
        </mxCell>
        <mxCell id="1jc9C1iYzzoCRpQc4cDz-74" value="подача" style="rounded=0;whiteSpace=wrap;html=1;" vertex="1" parent="1">
          <mxGeometry x="452.15999999999997" y="900" width="120" height="60" as="geometry" />
        </mxCell>
        <mxCell id="1jc9C1iYzzoCRpQc4cDz-85" value="" style="endArrow=classic;html=1;rounded=0;exitX=1;exitY=0.5;exitDx=0;exitDy=0;entryX=0.5;entryY=0;entryDx=0;entryDy=0;" edge="1" parent="1" source="1jc9C1iYzzoCRpQc4cDz-95" target="1jc9C1iYzzoCRpQc4cDz-74">
          <mxGeometry width="50" height="50" relative="1" as="geometry">
            <mxPoint x="730" y="684" as="sourcePoint" />
            <mxPoint x="840" y="950" as="targetPoint" />
            <Array as="points">
              <mxPoint x="640" y="730" />
              <mxPoint x="640" y="850" />
              <mxPoint x="512" y="850" />
            </Array>
          </mxGeometry>
        </mxCell>
        <mxCell id="1jc9C1iYzzoCRpQc4cDz-94" value="" style="edgeStyle=orthogonalEdgeStyle;rounded=0;orthogonalLoop=1;jettySize=auto;html=1;" edge="1" parent="1" target="1jc9C1iYzzoCRpQc4cDz-74">
          <mxGeometry relative="1" as="geometry">
            <mxPoint x="512.2499999999998" y="1010" as="sourcePoint" />
            <Array as="points">
              <mxPoint x="512" y="1000" />
              <mxPoint x="512" y="1000" />
            </Array>
          </mxGeometry>
        </mxCell>
        <mxCell id="1jc9C1iYzzoCRpQc4cDz-87" value="финиш" style="rounded=1;whiteSpace=wrap;html=1;" vertex="1" parent="1">
          <mxGeometry x="452" y="1010" width="120" height="60" as="geometry" />
        </mxCell>
        <mxCell id="1jc9C1iYzzoCRpQc4cDz-88" value="" style="endArrow=classic;html=1;rounded=0;" edge="1" parent="1">
          <mxGeometry width="50" height="50" relative="1" as="geometry">
            <mxPoint x="511.73" y="960" as="sourcePoint" />
            <mxPoint x="511.73" y="1010" as="targetPoint" />
          </mxGeometry>
        </mxCell>
        <mxCell id="1jc9C1iYzzoCRpQc4cDz-89" value="yes" style="text;fontStyle=0;html=1;strokeColor=none;gradientColor=none;fillColor=none;strokeWidth=2;" vertex="1" parent="1">
          <mxGeometry x="400" y="690" width="40" height="26" as="geometry" />
        </mxCell>
        <mxCell id="1jc9C1iYzzoCRpQc4cDz-92" value="no" style="text;fontStyle=0;html=1;strokeColor=none;gradientColor=none;fillColor=none;strokeWidth=2;align=center;" vertex="1" parent="1">
          <mxGeometry x="580" y="690" width="40" height="26" as="geometry" />
        </mxCell>
        <mxCell id="1jc9C1iYzzoCRpQc4cDz-95" value="круто подать" style="rhombus;whiteSpace=wrap;html=1;" vertex="1" parent="1">
          <mxGeometry x="472" y="690" width="80" height="80" as="geometry" />
        </mxCell>
        <mxCell id="1jc9C1iYzzoCRpQc4cDz-98" value="" style="endArrow=none;html=1;rounded=0;" edge="1" parent="1">
          <mxGeometry width="50" height="50" relative="1" as="geometry">
            <mxPoint x="510" y="850" as="sourcePoint" />
            <mxPoint x="360" y="790" as="targetPoint" />
            <Array as="points">
              <mxPoint x="360" y="850" />
            </Array>
          </mxGeometry>
        </mxCell>
        <mxCell id="1jc9C1iYzzoCRpQc4cDz-100" value="дизайн" style="rounded=0;whiteSpace=wrap;html=1;" vertex="1" parent="1">
          <mxGeometry x="300" y="750" width="120" height="60" as="geometry" />
        </mxCell>
        <mxCell id="1jc9C1iYzzoCRpQc4cDz-101" value="" style="endArrow=classic;html=1;rounded=0;exitX=0;exitY=0.5;exitDx=0;exitDy=0;entryX=0.5;entryY=0;entryDx=0;entryDy=0;" edge="1" parent="1" source="1jc9C1iYzzoCRpQc4cDz-95" target="1jc9C1iYzzoCRpQc4cDz-100">
          <mxGeometry width="50" height="50" relative="1" as="geometry">
            <mxPoint x="520" y="720" as="sourcePoint" />
            <mxPoint x="570" y="670" as="targetPoint" />
            <Array as="points">
              <mxPoint x="360" y="730" />
            </Array>
          </mxGeometry>
        </mxCell>
        <mxCell id="1jc9C1iYzzoCRpQc4cDz-117" value="" style="edgeStyle=orthogonalEdgeStyle;rounded=0;orthogonalLoop=1;jettySize=auto;html=1;" edge="1" parent="1" source="1jc9C1iYzzoCRpQc4cDz-103" target="1jc9C1iYzzoCRpQc4cDz-95">
          <mxGeometry relative="1" as="geometry" />
        </mxCell>
        <mxCell id="1jc9C1iYzzoCRpQc4cDz-103" value="действие 4" style="rounded=0;whiteSpace=wrap;html=1;" vertex="1" parent="1">
          <mxGeometry x="452" y="534" width="120" height="60" as="geometry" />
        </mxCell>
        <mxCell id="1jc9C1iYzzoCRpQc4cDz-104" value="дейтвие 3" style="rounded=0;whiteSpace=wrap;html=1;" vertex="1" parent="1">
          <mxGeometry x="630" y="430" width="120" height="60" as="geometry" />
        </mxCell>
        <mxCell id="1jc9C1iYzzoCRpQc4cDz-105" value="действие 2" style="rounded=0;whiteSpace=wrap;html=1;" vertex="1" parent="1">
          <mxGeometry x="630" y="310" width="120" height="60" as="geometry" />
        </mxCell>
        <mxCell id="1jc9C1iYzzoCRpQc4cDz-106" value="действие 1" style="rounded=0;whiteSpace=wrap;html=1;" vertex="1" parent="1">
          <mxGeometry x="630" y="200" width="120" height="60" as="geometry" />
        </mxCell>
        <mxCell id="1jc9C1iYzzoCRpQc4cDz-115" value="" style="edgeStyle=orthogonalEdgeStyle;rounded=0;orthogonalLoop=1;jettySize=auto;html=1;startArrow=none;" edge="1" parent="1" source="1jc9C1iYzzoCRpQc4cDz-125">
          <mxGeometry relative="1" as="geometry">
            <mxPoint x="552" y="460" as="sourcePoint" />
            <mxPoint x="630" y="460" as="targetPoint" />
            <Array as="points">
              <mxPoint x="630" y="460" />
              <mxPoint x="630" y="460" />
            </Array>
          </mxGeometry>
        </mxCell>
        <mxCell id="1jc9C1iYzzoCRpQc4cDz-116" value="" style="edgeStyle=orthogonalEdgeStyle;rounded=0;orthogonalLoop=1;jettySize=auto;html=1;" edge="1" parent="1" source="1jc9C1iYzzoCRpQc4cDz-107" target="1jc9C1iYzzoCRpQc4cDz-103">
          <mxGeometry relative="1" as="geometry" />
        </mxCell>
        <mxCell id="1jc9C1iYzzoCRpQc4cDz-107" value="усл 3&amp;nbsp;" style="rhombus;whiteSpace=wrap;html=1;" vertex="1" parent="1">
          <mxGeometry x="472" y="420" width="80" height="80" as="geometry" />
        </mxCell>
        <mxCell id="1jc9C1iYzzoCRpQc4cDz-114" value="" style="edgeStyle=orthogonalEdgeStyle;rounded=0;orthogonalLoop=1;jettySize=auto;html=1;startArrow=none;" edge="1" parent="1" source="1jc9C1iYzzoCRpQc4cDz-123">
          <mxGeometry relative="1" as="geometry">
            <mxPoint x="630" y="340.0000000000001" as="targetPoint" />
            <Array as="points">
              <mxPoint x="610" y="340" />
              <mxPoint x="610" y="340" />
            </Array>
          </mxGeometry>
        </mxCell>
        <mxCell id="1jc9C1iYzzoCRpQc4cDz-108" value="усл 2" style="rhombus;whiteSpace=wrap;html=1;" vertex="1" parent="1">
          <mxGeometry x="472" y="300" width="80" height="80" as="geometry" />
        </mxCell>
        <mxCell id="1jc9C1iYzzoCRpQc4cDz-111" value="" style="edgeStyle=orthogonalEdgeStyle;rounded=0;orthogonalLoop=1;jettySize=auto;html=1;startArrow=none;exitX=0.5;exitY=1;exitDx=0;exitDy=0;" edge="1" parent="1" source="1jc9C1iYzzoCRpQc4cDz-109">
          <mxGeometry relative="1" as="geometry">
            <mxPoint x="512.2285714285715" y="296" as="sourcePoint" />
            <mxPoint x="512" y="300" as="targetPoint" />
            <Array as="points">
              <mxPoint x="512" y="300" />
            </Array>
          </mxGeometry>
        </mxCell>
        <mxCell id="1jc9C1iYzzoCRpQc4cDz-113" value="" style="edgeStyle=orthogonalEdgeStyle;rounded=0;orthogonalLoop=1;jettySize=auto;html=1;startArrow=none;" edge="1" parent="1" source="11">
          <mxGeometry relative="1" as="geometry">
            <mxPoint x="552" y="230.0000000000001" as="sourcePoint" />
            <mxPoint x="630" y="230.0000000000001" as="targetPoint" />
            <Array as="points">
              <mxPoint x="620" y="230" />
              <mxPoint x="620" y="230" />
            </Array>
          </mxGeometry>
        </mxCell>
        <mxCell id="1jc9C1iYzzoCRpQc4cDz-109" value="усл 1" style="rhombus;whiteSpace=wrap;html=1;" vertex="1" parent="1">
          <mxGeometry x="472" y="190" width="80" height="80" as="geometry" />
        </mxCell>
        <mxCell id="1jc9C1iYzzoCRpQc4cDz-118" value="" style="endArrow=none;html=1;rounded=0;entryX=1;entryY=0.5;entryDx=0;entryDy=0;exitX=1;exitY=0.5;exitDx=0;exitDy=0;" edge="1" parent="1" source="1jc9C1iYzzoCRpQc4cDz-105" target="1jc9C1iYzzoCRpQc4cDz-106">
          <mxGeometry width="50" height="50" relative="1" as="geometry">
            <mxPoint x="800" y="430" as="sourcePoint" />
            <mxPoint x="850" y="380" as="targetPoint" />
            <Array as="points">
              <mxPoint x="800" y="340" />
              <mxPoint x="800" y="230" />
            </Array>
          </mxGeometry>
        </mxCell>
        <mxCell id="1jc9C1iYzzoCRpQc4cDz-119" value="" style="endArrow=none;html=1;rounded=0;exitX=1;exitY=0.5;exitDx=0;exitDy=0;" edge="1" parent="1" source="1jc9C1iYzzoCRpQc4cDz-104">
          <mxGeometry width="50" height="50" relative="1" as="geometry">
            <mxPoint x="800" y="430" as="sourcePoint" />
            <mxPoint x="800" y="340" as="targetPoint" />
            <Array as="points">
              <mxPoint x="800" y="460" />
            </Array>
          </mxGeometry>
        </mxCell>
        <mxCell id="1jc9C1iYzzoCRpQc4cDz-120" value="" style="endArrow=classic;html=1;rounded=0;" edge="1" parent="1">
          <mxGeometry width="50" height="50" relative="1" as="geometry">
            <mxPoint x="800" y="460" as="sourcePoint" />
            <mxPoint x="510" y="640" as="targetPoint" />
            <Array as="points">
              <mxPoint x="800" y="640" />
            </Array>
          </mxGeometry>
        </mxCell>
        <mxCell id="1jc9C1iYzzoCRpQc4cDz-125" value="yes" style="text;fontStyle=0;html=1;strokeColor=none;gradientColor=none;fillColor=none;strokeWidth=2;" vertex="1" parent="1">
          <mxGeometry x="581" y="447" width="40" height="26" as="geometry" />
        </mxCell>
        <mxCell id="1jc9C1iYzzoCRpQc4cDz-126" value="" style="edgeStyle=orthogonalEdgeStyle;rounded=0;orthogonalLoop=1;jettySize=auto;html=1;endArrow=none;" edge="1" parent="1" target="1jc9C1iYzzoCRpQc4cDz-125">
          <mxGeometry relative="1" as="geometry">
            <mxPoint x="552" y="460" as="sourcePoint" />
            <mxPoint x="630" y="460" as="targetPoint" />
          </mxGeometry>
        </mxCell>
        <mxCell id="1jc9C1iYzzoCRpQc4cDz-123" value="yes" style="text;fontStyle=0;html=1;strokeColor=none;gradientColor=none;fillColor=none;strokeWidth=2;" vertex="1" parent="1">
          <mxGeometry x="585" y="327" width="40" height="26" as="geometry" />
        </mxCell>
        <mxCell id="1jc9C1iYzzoCRpQc4cDz-127" value="" style="edgeStyle=orthogonalEdgeStyle;rounded=0;orthogonalLoop=1;jettySize=auto;html=1;endArrow=none;" edge="1" parent="1" source="1jc9C1iYzzoCRpQc4cDz-108" target="1jc9C1iYzzoCRpQc4cDz-123">
          <mxGeometry relative="1" as="geometry">
            <mxPoint x="552" y="340.0000000000001" as="sourcePoint" />
            <mxPoint x="630" y="340.0000000000001" as="targetPoint" />
          </mxGeometry>
        </mxCell>
        <mxCell id="11" value="yes" style="text;fontStyle=0;html=1;strokeColor=none;gradientColor=none;fillColor=none;strokeWidth=2;" parent="1" vertex="1">
          <mxGeometry x="585" y="217" width="40" height="26" as="geometry" />
        </mxCell>
        <mxCell id="1jc9C1iYzzoCRpQc4cDz-128" value="" style="edgeStyle=orthogonalEdgeStyle;rounded=0;orthogonalLoop=1;jettySize=auto;html=1;endArrow=none;" edge="1" parent="1" target="11">
          <mxGeometry relative="1" as="geometry">
            <mxPoint x="552" y="230.0000000000001" as="sourcePoint" />
            <mxPoint x="630" y="230.0000000000001" as="targetPoint" />
          </mxGeometry>
        </mxCell>
        <mxCell id="1jc9C1iYzzoCRpQc4cDz-131" value="no" style="text;fontStyle=0;html=1;strokeColor=none;gradientColor=none;fillColor=none;strokeWidth=2;align=center;" vertex="1" parent="1">
          <mxGeometry x="511.99999999999994" y="380" width="40" height="26" as="geometry" />
        </mxCell>
        <mxCell id="1jc9C1iYzzoCRpQc4cDz-137" value="no" style="text;fontStyle=0;html=1;strokeColor=none;gradientColor=none;fillColor=none;strokeWidth=2;align=center;" vertex="1" parent="1">
          <mxGeometry x="511.99999999999994" y="270" width="40" height="26" as="geometry" />
        </mxCell>
        <mxCell id="1jc9C1iYzzoCRpQc4cDz-138" value="" style="endArrow=classic;html=1;rounded=0;entryX=0.5;entryY=0;entryDx=0;entryDy=0;exitX=0;exitY=0;exitDx=0;exitDy=0;" edge="1" parent="1" source="1jc9C1iYzzoCRpQc4cDz-131" target="1jc9C1iYzzoCRpQc4cDz-107">
          <mxGeometry width="50" height="50" relative="1" as="geometry">
            <mxPoint x="490" y="450" as="sourcePoint" />
            <mxPoint x="540" y="400" as="targetPoint" />
          </mxGeometry>
        </mxCell>
      </root>
    </mxGraphModel>
  </diagram>
</mxfile>
